/* XPM */
static char *_3c505db03c8425e8e20f7ee39a0ef5bwv17S29HkGNkWJpo[] = {
/* columns rows colors chars-per-pixel */
"64 64 12 1 ",
"  c #330B0B",
". c #44130F",
"X c #4D1612",
"o c #5F1F17",
"O c #6F2A1E",
"+ c #702C1F",
"@ c #793323",
"# c #7B3323",
"$ c #7C3525",
"% c #89402C",
"& c #8C412C",
"* c #A7573B",
/* pixels */
"ooooooooooooooooooooooo               XXoooooooooooooooooooooooo",
"oooooooooooooooooooooooo             XXXoooooooooooooooooooooooo",
"ooooooooooooooooooooooooo XX        XXXXooooooooOOOoOOOooooooooo",
"oooooooooooooooooooooooooXXXX    XXXXXXoooooooOOOOOOOOOooooooooo",
"oOoooooooooooooooooooooooXXXXX    XXXooooooooOOOOOOOOOOoooOOooOO",
"ooOOoooooooooooooooooooooXXXXXX   XXooooooooOOOOOOOOOOooooOOOOOO",
"OoOOOoooOoOooooooooooooooXXXXXXX  XXooooooooOOOOOOOOOoooooOo###O",
"#oOOOooOOoOOOOOOooooooooooXXXXXX  XXXoooooooOOOOOOOOOoOOooooO###",
"##OOOooOO##OO#OOOooOOooooooXXXXX  XXXoooOOOooOOOO#####OOOoooo###",
"##OOOooOO######OOOOO###ooooXXXXX  XXXoooOOOO###O######OOOOooo###",
"###OOOOO#######OOOO####ooooXXXX   XXXXooOOO###########OOOOooo###",
"###OOO######&&##OOO####ooooXX XX  XXXXo##OO#############OOooo###",
"##########&&&&&#######oooooXXXXXX XXXXXoooOO############OOoOo###",
"#########&&&&&&&######oooooXXXXXX X  XXoooooo##########OOO#oO###",
"########&&&&&&&&##&&##ooooXXXXXXX     XXoooooo######&##OOO#oO###",
"######&&&&&&&&&&**&&&##oooXXXXXX      XXoooooo######&##OooOOO###",
"#####&&&&&****&****&&##ooooXXXX       XXXooooo######&**ooOOOO###",
"&**&#&&&&**********&&##oooooXXX       Xooo&oo&&####****##O####&&",
"*&&&&#&&*******#**&&&&#ooooooX       Xooooo&&&&&###****%#&&&##*&",
"*&#&&*************&#&&##oooooXX     Xoooooo&&&&&&*********&&#&&&",
"&*#*&&*************#*&&##oooooX    XXooooo&***&&&**********&&*&&",
"*&*&*&***************&##&ooooooX  XXXXooX&******************&***",
"*&***&***************####ooooooXXXXXXXXXX&***************&*&&#**",
"*&*&*****************#####ooooXXXXXXXXXXo&&*********#***&&&&****",
"#&******************&&###oooooXX  XXXXXoo&&&&&******&***&&&*****",
"&************&&*****&&###oooooXX   XXXXoo&&**********&**&*******",
"************&&&&&***&&&###oooXXX    XXXoo&&&&******&***********#",
"***##******&&&&&&&#&&&&####XXXXX     Xoooo&&&&*****************#",
"&&##&&*&****&**&&**&&&####oooXXX     Xooooo&&&*****************&",
"&##&&&&************&&####oooooXX     XXoooo&&*****************&&",
"##*&&&*&***********&###oooooooXX      Xooooo*********&&******&&&",
"#&*&**&&************##ooooooooXX      Xooooo&***&*****&&**#*&&##",
"&&&****&&***&**&***&&#ooooooooX       XXoooo&&&&&&****&&***&&###",
"&&*&***&&&&&&&&&**&*&&#ooooooo        XXoooo&&&&&#&**&&&**&&&##&",
"&&**###&&&&&&&&###*##&#ooooooo        XXooooo&&&&####&&**&&&###&",
"&&&&####&&##############oooooo       XXXXooooo&&&o###&&&*&&###OO",
"&*&##OO#################oooooXX     XXXXXXooooo&&oo##&&**&&##oO#",
"#&###OooOO###############ooooXX    XXXXXXXooooo&oooO$&&**&&##oo#",
"O####OOoOO######ooo####ooooooXX    XXXXXXXXooooooooo+###&&###ooo",
"O####OOoooo####ooooo##oooooooXX    XXXXXXXXXXoooooooO+##O####ooo",
"OooOOOOoOoooo##ooooo##ooooooXXX    XXXXXXXXXXXoooOOoooooo###Oooo",
"OooOooOooooooo#oooo##OooooooXXX    XXXXXXXXXXXoooooOOOOOo##OOooo",
"OoOOoOooooooooooooOOoO#oooooXXXX   XXXXXXXXXXXXXOoOOOOOOO#OoOoo#",
"OooooooooooooooooooooOOooooooXXXX   XXXXXXXXXXXXXoooO#####OOoooO",
"OOooooooooooooooooooOOOOo#oooXXXX    XXXXXXXXXXXXOOOo###oOOo#oOO",
"OOOoooooXXooooooooooOOOoooooXXXXX     XXXXXXXXX Xooo####OOOooooO",
"OOOooooXXXXXXoooooooOOOoooooXX  X     XXXXXXXXX  oooo##oOOoooooO",
"OOOooooXXXXXXXXXooooOOOooooXX          XXXXXXXX  XooOoOOoooOoooO",
"oOooooXXXX   XXXXoooOoooooXXX           XXXXXX   XooOoOoOooooooo",
"OOOoXXXXX     XXXooooOooooXXX             XXX    X.oOOOOOoOooooo",
"OoooXXXX      XXoooooOooooXXX               X    XXXXooOOOOooooo",
"Xooo  X       XXoooooXXoooXXX         X          XXXXooOoOoooooX",
"XooX X         XXooooXXXoooXX                X  X  ooooooOooooXX",
"XooX X         XXXXooXXoooXXX                     ooX XXoooooX X",
"ooXX           X  XXooooooXXXX                   ooXX XXoooXXXXX",
"ooX            X   XoooooXXX        oo          ooXX  XoXXX  X X",
"X                   oooooXX         o XX      XX oX   XXXX     o",
"X    X              oooooXX            XX    XX              XXX",
"X    X              oooooX             XXX  XXX    XX          X",
"X    X  X    X      ooooo            XXXX    XXXX  XXXX       XX",
"XX     X     XXXXXX ooooX         X  XX        XX  XXXX         ",
"              XXXX   ooX             X          X    XX         ",
"                                                                ",
"                                                                "
};
