/* XPM */
static char *_9b9fedf5f994500f09aaa78725f06edSEvafiyFx0IcfRXa[] = {
/* columns rows colors chars-per-pixel */
"64 64 12 1 ",
"  c #330B0B",
". c #44130F",
"X c #4D1612",
"o c #5F1F17",
"O c #6F2A1E",
"+ c #702C1F",
"@ c #793323",
"# c #7B3323",
"$ c #7C3525",
"% c #89402C",
"& c #8C412C",
"* c #A7573B",
/* pixels */
"oooooooooooooooooooooooooooooooooooooooooooooooooooooooooooooooo",
"oooooooooooooooooooooooooooooooOoooooooooooooooooooooooooooooooo",
"ooooooooooooooooooooooooooooooOOooooooooooooooooOOOoOOOooooooooo",
"oooooooooooooooooooooooooooooOOoooooooooooooooOOOOOOOOOooooooooo",
"oOoooooooooooooooooooooOoooo##ooOOoooooooooooOOOOOOOOOOoooOOooOO",
"ooOOooooooooooooooooooOOOOO###oOOOOoOOooooooOOOOOOOOOOooooOOOOOO",
"OoOOOoooOoOooooooooooOOOOO#####OOOOOOOOoooooOOOOOOOOOoooooOo###O",
"#oOOOooOOoOOOOOOooooOOOOOOoo###OOOOOOOOOOoooOOOOOOOOOoOOooooO###",
"##OOOooOO##OO#OOOooOOOOO#oo##OO#OOOOOOOOOOOooOOOO#####OOOoooo###",
"##OOOooOO######OOOOO#####o####O####OOOOOOOOO###O######OOOOooo###",
"###OOOOO#######OOOO###########O#####OO##OOO###########OOOOooo###",
"###OOO######&&##OOO##########O###########OO#############OOooo###",
"##########&&&&&##########o##OO############OO############OOoOo###",
"#########&&&&&&&#########Oo#OOO########################OOO#oO###",
"########&&&&&&&&##&&#####Oo#OOO#########&###########&##OOO#oO###",
"######&&&&&&&&&&**&&&####OOOooO#######&**&&&########&##OooOOO###",
"#####&&&&&****&****&&####OOOOoo**&&###**&&&&&&######&**ooOOOO###",
"&**&#&&&&**********&&&&&####O##****#&*****&&&&&####****##O####&&",
"*&&&&#&&*******#**&&&*&*##&&&#%***#&&******&&&&&###****%#&&&##*&",
"*&#&&*************&#&*&&&#&&******&&&&******&&&&&*********&&#&&&",
"&*#*&&*************#*&&&*&&******&&&&&&******&&&&**********&&*&&",
"*&*&*&*******************&*******&&&&&&&******&&&***********&***",
"*&***&******************#&&*&******&&&********&&*********&*&&#**",
"*&*&**********************&&&&******&*******&&&&****#***&&&&****",
"#&*************************&&&***************&&&&***&***&&&*****",
"&************&&**************&&&*************&&&*****&&&&*******",
"************&&&&&*************&&********#&*&&&&&***&*&&&*******#",
"***##******&&&&&&&#***#*&&****&**********&**&&&&**&*##&********#",
"&&##&&*&****&**&&******&&&****&**&&&******&*&&&&&***##&********&",
"&##&&&&******************&*&&&&&&&&&&*****&&&&&&&&&##&&*******&&",
"##*&&&*&******************&&&&&&&&&&&*&**#&&&&&&&&&&#&&******&&&",
"#&*&**&&******************&&&&&&&&&&*&&&#&&&&&&&&&&&&&&&**#*&&##",
"&&&****&&***&**&***&*******&&&&&&&&&&##&#&&&&&&&&&&&&&&&***&&###",
"&&*&***&&&&&&&&&**&*&&&****&&&&&&&&&&####o&&&&&&&#&&#&&&**&&&##&",
"&&**###&&&&&&&&###**&##****&&&&&&&&&####ooo&&&#######&&**&&&###&",
"&&&&####&&########&&####**#&&&&&&#######oooooo###o###&&&*&&###OO",
"&*&##OO############&####*##&&&&&&########oooo##oooo##&&**&&##oO#",
"#&###OooOO##############o##&&**&&$Oo###ooooooo#ooooO$&&**&&##oo#",
"O####OOoOO#############oo###&&###+oooooooooooooooooo+###&&###ooo",
"O####OOoooo###########ooo####O##+OooooooooooooooooooO+##O####ooo",
"OooOOOOoOoooo######ooOoooO###ooooooOOooooooooooooOOoooooo###Oooo",
"OooOooOooooooo#####ooOoooOO##oOOOOOooooooooooooooooOOOOOo##OOooo",
"OoOOoOoooooooooo##OOoO#ooOoO#OOOOOOOoOoooooooooXOoOOOOOOO#OoOoo#",
"OooooooooooooooooooooOOoooOO#####OoooooooooooooXXoooO#####OOoooO",
"OOooooooooooooooooooOOOOo#oOOo###oOOooooooooXX XXOOOo###oOOo#oOO",
"OOOoooooXXooooooooooOOOooooOOO####oooooooooXXXX Xooo####OOOooooO",
"OOOooooXXXXXXoooooooOOOoooooOOo##oooooooooXXXXX  oooo##oOOoooooO",
"OOOooooXXXXXXXXXooooOOOoooOoooOOoOoXXooooXXXXXX  XooOoOOoooOoooO",
"oOooooXXXX   XXXXoooOooooooooOoOoOoXXXXooXXXXX   XooOoOoOooooooo",
"OOOoXXXXX     XXXooooOoooooOoOOOOOo    XXXXXX    X.oOOOOOoOooooo",
"OoooXXXX      XXoooooOoooooOOOOooX         XX    XXXXooOOOOooooo",
"Xooo  X       XXoooooXXoooooOoOooX          X    XXXXooOoOoooooX",
"XooX X         XXooooXXXooooOooooo          XX  X  ooooooOooooXX",
"XooX X         XXXXooXX XoooooXX X                ooX XXoooooX X",
"ooXX           X  XXooXXXXXoooXX XX              ooXX XXoooXXXXX",
"ooX            X   XooX X  XXXoX  XXoo          ooXX  XoXXX  X X",
"X                    Xo     XXXX   Xo XX      XX oX   XXXX     o",
"X    X                XXX              XX    XX              XXX",
"X    X                X          XX    XXX  XXX    XX          X",
"X    X  X    X       XXX       XXXX  XXXX    XXXX  XXXX       XX",
"XX     X     XXXXXX XX         XXXX  XX        XX  XXXX         ",
"              XXXX             XX    X          X    XX         ",
"                                                                ",
"                                                                "
};
