/* XPM */
static char *a1aa30d45c874161a7f912e165333106[] = {
/* columns rows colors chars-per-pixel */
"64 64 10 1 ",
"  c #330B0B",
". c #4D1612",
"X c #5F1F17",
"o c #6F2A1E",
"O c #702C1F",
"+ c #793323",
"@ c #7B3323",
"# c #7C3525",
"$ c #8C412C",
"% c #A7573B",
/* pixels */
"XXXXXXXXXXXX.............         ........XXXXXXXXXXXXXXXXXXXXXX",
"XXXXXXXXXXXXX...X.......          ..........XX.XXXXXXXXXXXXXXXXX",
"XXXXXXXXXXXXXXXX........         ............XXXoooXoooXXXXXXXXX",
"XXXXXXXXXXXXXXXX.......        ...XXX....  ..XXXoooooooXXXXXXXXX",
"XoXXXXXXXXX@@XXX....        ....XXXXXXXX.   ..XXXooooooXXXooXXoo",
"XXooXXXXXXX@@@XX....       ..XXXXXXXXXXXX    ...XXooooXXXXoooooo",
"oXoooX@@@X@@@@XX....      ..XXX@@XX@@XXXX     ..XXXXoXXXXXoX@@@o",
"@Xoo@@@@@@@@@@oXX..      ..XXXX@@XX@@@XXXX    ..XXXXXXooXXXXo@@@",
"@@oo@@@o@@@$$$XX...     ..XX@@@@@oo@@@XXXX     .XXXXXXoooXXXX@@@",
"@@oo@@@$$$$$$$X...      .XX@@@@@@@@oooXXXX..   ..XXXXXXXooXXX@@@",
"@@@o@@@$$$$$$$X.       ..XX@@@o@@@@@oo@@@XX..   ...XXXXXXoXXX@@@",
"@@@o@@@$$$$$$$X        .XX@@Xo@$$$@@@@@@@XX....  ...XXXXXoXXX@@@",
"@@@@@@$$$$$$$$X       ..XX@@oo$$$$$$@@@@@@XX...   ...XXXXoXoX@@@",
"@@@@@@$$$%$$$$$X      ..XX@@X@$$$$$$$@@@@@XXX... ...XXXXXo@Xo@@@",
"@@@@@@$$$%%$$$$XX    ....XXX@@@$$$$$$@@@$XXXX... ...XXXXoo@Xo@@@",
"@@@@@$$$$%%$$$$$     ....XXX@@@$$$$$$@$%@@XX........XXXXXXooo@@@",
"@@@@@$$$$%%%$$$$      ...XX@@@$$$$$$$$%@@@@$XX... ..XXXXXoooo@@@",
"$%%$@$$$$%%%%$$$       ...X@@@$$$$$$$$$$@@@XXXX.. ..XXXXXo@@@@$$",
"%$$$$@$$%%%%%%$$      ...XX@@$$$$$$$%%$$$@@@XXX.. ...XXXXX$$@@%$",
"%$@$$%%%%%%%%%$$      ..XXX@@$$$$$$$%%$$$$@@XXX.. ....XXXX$$@$$$",
"$%@%$$%%%%%%%$$$X    ..XXXX@@@$$$$$%%%$$$$$@XXX... ...XXXXX$$%$$",
"%$%$%$%%%%%%$$$$X   ...XXX@@@$$$$$$%%%%$$$$$@@@X.. ....XXXX%$%%%",
"%$%%%$%%%%%%$$$$X   ..XXX@@@$$$$$$$%%%%%$$$$@@@X.. ....XX$$$$@%%",
"%$%$%%%%%%%$$$$$X   ..XXX@@$$$$$$$%%%%%$$$$$@@X... ...XXX$$$%%%%",
"@$%%%%%%%%%$$$@@X   .XXX@@@$$$$%%%%%%%%$$$$@@@XX.. ...XX$$$%%%%%",
"$%%%%%%%%%%$$$@@X   .XXX@@$$$$$$%%%%%%%%%%@@@@XX.. ...XX$$%%%%%%",
"%%%%%%%%%%$$$@@@X   .XX@@@$$$$$$%%%%%%%%@$$@@@XX.. ...XX$$%%%%%@",
"%%%@@%%$$%$$$$@@    .@@@@$$$$$$%%%%%%%%%%$$$@@XX.. ...XX$$%%%%%@",
"$$@@$$$$$$$$$$@@    .@@@$$$$%%$%%$$$%%%%%%$$@@XX.. ...XX$$%%%%%$",
"$@@$$$$$$$$$$@@    .XXX$$$$@%%$$$$$$$%%$$$@@@@XX.  ...XX$$%%%%$$",
"@@%$$$$$$$$$@XX    .X@@$$$$$%%%$$$$$$%$$$$@@@XXX.  ...XX$$$%%$$$",
"@$%$%$$$$$@@XX    ..X@@$$$$$$%%$$$$$$$$$$@@@@XXX.   ..X$$$$%$$@@",
"$$$%%$$$@@@XXX   ..XX@@$$$$$$%%$$$$$$$$$@@@@XXXX..  ..X$$$$$$@@@",
"$$%$%$$$$@@@X    .XX@@@$$$$$$$%$$$$$$$$@@@$$XXXX..   ..X$$$$$@@$",
"$$%%@@@@@@@@X   ..XX@@@$$$$$$$%%$$$$@@@@XXX$.XX...   ..XXX$$@@@$",
"$$$$@@@@@X..    ..XX@@$$$$$$$$%%%@@@@@@@XXXX.......  ...XX$@@@oo",
"$%$@@oo@@....   ..X@@@$$$$$$$$$%$@@@@@@@@XXX.......  ....XX@@Xo@",
"@$@@@oXX....   ..XX@@@@@X@$$$$$$$#oX@@@XXXXX......   ...XXXX@XX@",
"o@@@@oXX...    .XXXXX@@XX@@$$$@@@OXXXXXXXXXX......    ..XXXX@XXX",
"o@@@@oX...     .XXXX@@@XX@@@@o@@OoXXXXXXXXXXX.....    ..XXXX@XXX",
"oXXooX....    ..XXXX@@XXXo@@@XXXXXXooXXXXXXXXXX...    ..XXXXoXXX",
"oXXoXX...     ..XXXXXXXXXoo@@XoooooXXXXXXXXXXXX....   ..XXXXoXXX",
"oXooXXX.      ...XXXXXXXXoXo@oooooooXoXXXXXXX.....    ..XXXXoXX@",
"oXXXXX.        ...XXXXXXXXoo@@@@@oXXXXXXXXXXXX....    ..XXXXXXXo",
"ooXXXX         ....XXXXoX@XooX@@@XooXXXXXXXXX. ...     XXXXX@Xoo",
"oooXX          ....XXXXXXXXooo@@@@XXXXXXXXXXX.....    .XXXXXXXXo",
"oooX.          ...XXXXXXXXXXooX@@XXX..XXXXXXX.....    .XXXXXXXXo",
"ooo..          ...XXXXoXXXoXXXooXoX....XXXXXX....    ..XXXXoXXXo",
"XoX...         ...XXXXXXXXXXXoXoXoX.....XXXXX....    ..XXXXXXXXX",
"ooo....       ...XXXXXXXXXXoXoooooX ....XXXXX ..     ..XXXXXXXXX",
"oXX.....      ...XXXXXXXXXXooooXX.    ..XXXXX...     ...XXoXXXXX",
".XXX...       ...XXXXX.XXXXXoXoXX.      .XX.....     ..oXoXXXXX.",
".XX. .        ....XXX...XXXXoXXXXX       .......     ..XXoXXXX..",
".XX.           ....XX.. .XXXXX.. .        .....      . .XXXXX. .",
"XX..           .  ..XX.....XXX.. ..        ....      . .XXX.....",
"XX.            .   .XX. .  ...X.  ..XX               ..X...  . .",
".                    .X     ....   .X ..             .....     X",
".                     ...              ..    .       .       ...",
".                     .          ..    ...  .                  .",
".            .       ...       ....  ....                     ..",
"..           ...... ..         ....  ..                         ",
"              ....             ..    .                          ",
"                                                                ",
"                                                                "
};
