/* XPM */
static char *_0940db1f82341f2ab4ffa1f223123f2[] = {
/* columns rows colors chars-per-pixel */
"64 64 151 2 ",
"   c #070107",
".  c #160406",
"X  c #1D0506",
"o  c #130508",
"O  c #190608",
"+  c #220605",
"@  c #2D0604",
"#  c #250907",
"$  c #2E0904",
"%  c #220908",
"&  c #2D0E0A",
"*  c #330703",
"=  c #390702",
"-  c #340A04",
";  c #3C0C04",
":  c #320D08",
">  c #3C0F09",
",  c #3E1007",
"<  c #34130F",
"1  c #3E110A",
"2  c #3E1812",
"3  c #430D03",
"4  c #490E02",
"5  c #430F08",
"6  c #451106",
"7  c #4B1205",
"8  c #44130A",
"9  c #48170D",
"0  c #4C150A",
"q  c #49180B",
"w  c #49180D",
"e  c #4A180D",
"r  c #4C190D",
"t  c #4E190D",
"y  c #4C180E",
"u  c #4D180D",
"i  c #511100",
"p  c #511101",
"a  c #511201",
"s  c #521201",
"d  c #531201",
"f  c #521203",
"g  c #541201",
"h  c #551201",
"j  c #561200",
"k  c #561201",
"l  c #541400",
"z  c #501305",
"x  c #521607",
"c  c #511507",
"v  c #541607",
"b  c #531303",
"n  c #591503",
"m  c #5D1500",
"M  c #5F1500",
"N  c #5E1501",
"B  c #5A1501",
"V  c #591907",
"C  c #501508",
"Z  c #501608",
"A  c #501609",
"S  c #511609",
"D  c #521709",
"F  c #51160A",
"G  c #53160A",
"H  c #53170A",
"J  c #541708",
"K  c #541709",
"L  c #551709",
"P  c #521609",
"I  c #50180A",
"U  c #51180B",
"Y  c #50190B",
"T  c #52190A",
"R  c #53190A",
"E  c #53190B",
"W  c #521A0B",
"Q  c #531909",
"!  c #541909",
"~  c #561809",
"^  c #54190A",
"/  c #54180B",
"(  c #54190B",
")  c #56180A",
"_  c #56190A",
"`  c #56190B",
"'  c #57190B",
"]  c #571A0A",
"[  c #50180C",
"{  c #52190C",
"}  c #53190C",
"|  c #52190D",
" . c #541A0C",
".. c #561B0C",
"X. c #541B0E",
"o. c #541B0F",
"O. c #521D0F",
"+. c #571D0E",
"@. c #561D0F",
"#. c #541A0C",
"$. c #581809",
"%. c #5B1908",
"&. c #5A1A09",
"*. c #59190A",
"=. c #5B190A",
"-. c #591B0B",
";. c #5C1A08",
":. c #5C1A09",
">. c #5D1A09",
",. c #5C1B0A",
"<. c #5C1C0B",
"1. c #581B0C",
"2. c #581B0D",
"3. c #5C1A0C",
"4. c #581C0D",
"5. c #581D0E",
"6. c #581D0F",
"7. c #5A1C0F",
"8. c #5A1D0F",
"9. c #5B1E0F",
"0. c #5C1D0E",
"q. c #5D1E0F",
"w. c #5B1B0B",
"e. c #461A11",
"r. c #461A11",
"t. c #491A10",
"y. c #4C1B10",
"u. c #4D1B10",
"i. c #541D10",
"p. c #561E10",
"a. c #541D11",
"s. c #5C1E10",
"d. c #5A1E11",
"f. c #611600",
"g. c #631600",
"h. c #661800",
"j. c #671800",
"k. c #631B07",
"l. c #691900",
"z. c #631D08",
"x. c #641E0B",
"c. c #631D0B",
"v. c #5F200F",
"b. c #5E200F",
"n. c #552115",
"m. c #5C2213",
"M. c #63210F",
"N. c #6D200A",
"B. c #622313",
"V. c #6B2613",
"C. c #722812",
/* pixels */
"f k 4 3 7 f 4 4 &.~ L 7.q.7.r C 3 ; $ - 8 1 ; - - - - - 9 e - - $ - - - - ; 3 ; W ~ &.>.k.z.0 ; ; @ - - - - @ ; ; ; 3 7 7 3 7 7 ",
"0 0 ; 3 3 k - q 0 0 0 q.7.7.r 8 - - - 8 8 1 8 ; - - - - - - - - 1 8 - 8 7 3 3 u W 0 0 C k 3 = = ; ; - - ; @ @ ; 3 f m 7 7 7 ; 3 ",
"0 0 8 4 ~ >.0 8 O. .0 0 L q.~ ; = | 8 8 8 6 6 = - 1 1 - - - 8 8 1 0 7 6 7 @.0 W C 0 0 C ; = ; = 8 0 ; ; * ; ; 4 f f 7 B 7 W 0 C ",
"0 0 0 0 &.v 6 e e 9 t.0 4 >.<.3 0 0 8 8 0 8 - 3 0 8 1 8 > 7 0 0 0 7 7 7  .7.0 w.~ ~ ~ 7 3 3 ; 6 6 ; 6 4 ; 3 7 f 7 7 7 7 0 0 0 C ",
"0 C 4 C c C r e e r e.W &.C C 0 0 0 0 8 8 0 3 - 0 L 8 8 5 7 6 6 ~ 0 6 W W q.w. .W 3 7 7 0 0 0 ; > ; 6 6 4 m m j.f f 3 6 &.0 0 0 ",
"C 7.C 7 c | r e i.u.i.~ 0 0 C 0 ; 0 0 0 0 = - - 4 0 0 0 0 6 7 c 7 z 0 0 ~ W ~ ~ 3 3 3 0 c c 6 5 > ; ; 0 c.j.j.j.g.f k 3 - &.C 3.",
"s.C ~ L C | @.@.e  .v.0 0 7 6 0 4 4 - - 7 0 8 - 3 0 W 0 6 3 6 6 3 7.W W 0 0 ~ ~ 3 0 0 0 0 0 6 ; > ; 0 >. .k g.3 3 3 3 4 4 f m C ",
"C 0 L C C C 9 8 r v.v.0 7 7 7 3 4 3 0 0 3. .0 0 5 7 W C 5 3 3 ; 5 0 0 0 0 0 C C ~ 0 8 7.C 6 7 6 ; - 0 0 3 3 - - = = 3 f f >.>.7 ",
"8 8 C C C C e 9 9 r M.c 6 3 3 7 0 6 0 0 L w.| | 6 3 3 k 3 3 3 5 ; 0 6 0 0 8 @.0 0 9 u 8 > ; ~ 0 3 3 ; - ; 4 8 8 = ; 3 3 >.&.&.~ ",
"0 0 0 L C @.e e 9 9 6 0 * 3 7 7 3 0 6 6 &.&.u ; ; 3 4 v 0 3 ; ; 8 8 0 r O.O.0 0 8 u 8 ; > 5 7 7 3 3 3 3 3 C 0 0 8 ; 3 3 ~ &.&.C ",
"0 i.7.0 i.i.a.r e 1 > > $ @ 3 7 7 7 7 0 ; ; &.u > 7 v 7 0 6 8 8 8 8 r r O.n.8 8 | 0 - ; 3 ; 7 B 4 3 3 3 ; 0 ~ 0 0 = ; f f ~ L 3 ",
"t.t.u.a.m.a.@.i.8 0 5 6 = ; 6 6 c 6 > 5 ; W W 0 0 5 0 7 7.@.7.q.8 | O.O.m.i.e e 8 r 6 = - - * 6 f f 4 - - 3 0 &.3 4 4 3 4 4 @ @ ",
"e i.n.m.a.m.i.0 0 0 6 = ; 3 3 7 0 5 5 ; 6 0 0 0 6 ; 3 O.@.@.@.| m.d.m.m.m.W e i.i.9 8 ; ; - 6 c.f 4 ; = - - ~ z.3 3 3 3 f f 4 @ ",
"0 i.m.n.n.u.0 0 0 6 ; = 3 7 7 f z 7 3 5 ; 5 0 6 ; ; = 0 0 @.| r m.r 1 W m.m.i.| e a.; 0 6 ; 6 0 >.; ; 3 = 0 <.>.3.3 ; 3 7 7 3 = ",
"0 r d.n.n.8 0 0 6 ; ; ; 7 C 7 C 4 7 5 5 = ; 3 = - ; - 0 0 r | | ; 8 0 @.m.~ 0 8 8 0 6 6 6 6 6 6 0 3 7 3 3 W ~ >.3.7 7 f ~ ~ 3 3 ",
"r d.d.e.0 8 6 0 6 3 3 3 0 7 7 0 ; = = 3 3 v 0 3 4 ; = = 7.u u 5 5 5 &.0 ~ ~ 0 0 u 7 6 6 5 6 6 5 = 3 7 7 ; = ~ c.; ; f c.&.0 L ; ",
"d.m.e.m.t., 5 7 4 4 3 3 3 7 7 - 3 7 c v V V V z.3 3 ; ; 3 ; ; 5 6 0 C c.~ ~ @.0 | | 7 5 6 = = = - ; 3 f ; ; ; = 4 3 4 &.0 0 0 = ",
"u.n.n.m.9 1 7 3 3 0 L ; 3 3 ; 4 3 0 c c c 7 >.z.3 3 ; ; ; 5 ; ; ~ ~ ~ 7.0 6 0 r | | 0 3 = ; ; - - - 3 3 = ~ ~ ; 3 4 4 3 0 0 = 8 ",
"u.2 a.a.e > 3 3 6 0 @.7.7 7 3 3 4 0 0 6 6 0 6 5 f 3 ; ; ; ; ; 5 ~ C ~ 0 3 0 | r r 0 6 7 6 3 5 - - - - ; 0 8 | 3.; W >.3 ; 3 8 0 ",
"0  .8 8 9 ; 3 6 0 @.@.7.L ~ 0 = 4 4 c 6 ; ; ; ; ; ; ; ; ; ; ; 6 3 C ~ 6 0 0 0 6 0 6 6 6 6 0 3 ; - - 8 9 0 0 0 8 8 ~ ~ ~ 3 3 &.0 ",
"&.; 7 6 : 9 0 6 0 m.r 7 B.B.0 7 4 4 3 ; ; - - ; > - - ; = = 3 6 7 6 7 W 0 0 0 0 0 0 6 6 6 6 0 0 - 9 a.a.@.0 1 8 8 8 ~ ~ 3 4 4 &.",
"3 = - 6 r 9 r 0 | | v M.m.V.~ 4 4 7 ; ; ; - ; > > ; - ; = = 0 0 C 0 C @.6 0 W 7.0 0 0 0 | 0 0 8 8 a.a.a.a.8 8 - - 1 >.<.c.3 4 7 ",
"0 = = 5 9 r | d.| 0 0 | L 0 C - ; ; ; ; ; ; - * - > - * - - 8 ~ 0 0 0 5 0 0 0 7.| 6 6 0 0 6 0 0 8 - r @.; - - - -  .w.<.c.c.&.0 ",
"6 6 = = 6 r |  .7 7 0 0 0 0 ; - - - ; ; ; * * - = ; k 4 = ; ; 0 L 0 8 8 8 - = 0 | 6 6 0 8 0 c 0 ; - 7 0 3 ; - 8 9 3 3.3.<.B.i.0 ",
"8 6 = = 0 r 7.| 6 8 0 6 6 6 8 - @ > - - * * * ; B B k m 3 = 3 3 5 u d.0 3 3 6 | 6 W 0 0 0 3 4 3 6 8 0 0 0 3 8 0 0 9 7 c.3.m.a.0 ",
"0 ; ; 6 0 | i.i.0 i.a.0 ; 8 0 8 - @ - * ; > * ; 7 f h.B 7 ; 7 7 0  .| C W 7 0 0 W &.6 6 ; = 3 v 8 8 6 &.C * C C C w.3 3  .r B.@.",
"3 ; ; 6 7 0 i.6 r m.m.a.8 8 ; ; 8 * * 1 8 ; 8 ~ 7 7 3 7 ; ; 0 q.0 0 ~ ~ ~ ~ ; 0 ~ 3 4 3 = 3 5 | r 8 8 0 ; - 3 &.c.7 6 f 9 9 &.<.",
"6 ; 3 6 6 0 8 8 | i.i.a.@.6 ; 8 | 8 8 6 8 d.@.&.&.; ; 3 8 8 0 q.| 0 ~ W >.C 3 6 3 6 7 3 3 3 5 5 6 1 1 - - * ; <.c.k k m 3 0 0 C ",
"6 6 = = 6 | 9 1 | | i.a.= 8 8 | 6 0 0 >.B.a.B.i.0 ; = 6 6 6 6 6 | |  .~ 0 3 6 6 7 7 3 3 4 5 7 5 ; @ - - - - 8 ~ c.<.h.l.f ; C 0 ",
"6 > * = 0 9 9 9 8 s.r e 8 ; 3 6 8 8 0 | m.m.a.m.> - 3 0 0 6 6 0 8 [ |  .3 5 7 7 7 3 ~ 0 ; 7 3 ; @ - - - - - 8 <.N.N.g.l.3 ; 6 6 ",
"0 ; * * > & 9 r 6 a.a.8 8 0 3 6 r 9 9 ; ; e 9 - - 3 3 L 6 6 0 6 0 W B.B.7  .x.7 7 ~ 0 6 6 7 ; ; * ; 8 ; 8 8 - 0 &.4 g.4 = ; = 8 ",
"3 4 3 * * 6 1 - m.a.8 8 8 8 8 , > 1 8 - - - 9 8 - 3 3 0 0 7 8 [ 5 d.B.7.0 u x.7.7 ~ 6 6 0 3 3 ; 5 ; 0 8 6 8 8 - = - @ * = = ; 3 ",
"f 3 3 ; @ * - e e e 9 8 8 8 8 1 8 8 8 - - r 8 8 8 * ; ; 6 6 5 6 u  . .C C 0 W @.; ; c 7 3 7 3 3 5 6 6 0 0 > 8 - 8 8 @ - = = 7 4 ",
"; 3 ; ; - @ 8 e e O.e - = 8 8 8 8 8 = - | r ; > ; * - - * = ; 5 q. .&.w.; 0 ~ ; = 8 0 3 ; 3 3 3 3 C &.; 0 > * 8 8 1 9 - - = &.C ",
"8 = ; 3 = @ 6 9 O.u.| - = 8 8 8 8 - = u r 6 6 5 > = = * - - = 3 3 q.q.6 5 6 4 3 7 6 0 C 4 3 3 = 7 7 7 6 , = - > 8 r 8 - ; 0 8 8 ",
"0 ; 3 ; @ * 6 9 | a.a.= - 8 6 8 6 = = 7  .1 8 0 ; 8 3 ; - = 3 7 6 6 0 6 6 7 4 0 7 7 W 0 3 3 ; 0 q. .@.6 7 0 3 3 C 0 ; - - 8 8 8 ",
"= 3 ; = @ * ; 6 e a.- ; - 8 8 ; ; - 3 3 7 0 6 8 u 7 6 ; ; ; 7 3 6 ; 6 6 5 3 C W 7 ~ ~ 8 0 ; 0 &.W <.V.B.V C 7 7 3 3 3 = 1 8 8 8 ",
"= = 4 3 ; 3 ; ; - - ; 3 3 8 0 6 6 = 3 3 ; 3 = C 0 0 6 6 ; 5 5 3 5 5 5 8 6 6 0 W 7.&.~ q.7.3 C | 7.V.C.V.c.f 4 4 0 0 ; 0 C 8 0 0 ",
"3 * 4 3 4 4 5 6 8 8 ; 5 = 5 0 0 ; 0 7 3 3 ; 3 7 0 6 c c 3 5 7 6 5 3 0 6 6 0 0 0  .>.v.q.C ~ ~ 7.B.B.B.~ C B 3 0 C 0 0 8 0 0  . .",
"; o ; 4 4 4 6 6 1 6 6 6 0 3 ; 6 0 7 0 7 4 3 3 4 7 7 7 v 7 7 ~ ; ; 3 @.8 8 8 u @.C 3 W 0 C ~ &.c.<.&.0 0 - - 3 6 8 8 8 ; 0 0 W ; ",
"$ $ . 3 3 4 1 6 8 6 0 0 0 0 6 C v 7 c 7 7 3 4 7 3 7 0 0 M.&.0 6 3 0 6 8 8 0 @.C C 7 3 0 w.4 k c.&.4 ; - - - 3 - 1 8 ; 3 ; f 3 $ ",
"6 6 - # 3 4 1 1 1 0 6 0 0 6 6 C L c 7 f 7 3 f 7 3 0 W ~ &.L 7 1 5 6 1 8 0 0 | B.z v 3 ; 3 7 k f 4 ; ; * = 3 3 ; - ; 3 3 k k f ; ",
"6 > 6 ; # & : 8 1 6 6 r 6 , 6 6 L z f 3 7 k 7 3 3 ~ ~ ~ ~ c 8 ; > - 1 0 u 0 C C 3 v 7 7 7 7 z v m = - ; 3 3 3 3 ; ; ; 3 B k 7 m ",
"+ $ : o O # & % $ $ : 3 k 3 7 c C 3 3 3 f 7 7 5 5 ; 0 L v 7 3 3 3 5 C W ~ ~ 0 3 7 6 6 - - o 7 7 3 3 4 3 3 3 3 - - 4 4 4 6 - - - ",
"- + 8 < # X ; ;   : ; ; > 7 c ~ 0 0 3 ; ; ; ; > ; > ; ; 3 3 3 3 5 5 C C M.&.6 7 W e 6 3 $ 7 k f 3 3 ; ; 4 7 - - ; ; 4 4 7 3 $ $ ",
"0 | 1 1 1 + 3 * * O 1 1 - 0 ~ 0 ~ 0 = - - ; - - - ; ; ; 3 3 3 3 ; 3 0 C &.0 7 6 1 0 C 7 ; 4 7 7 3 ; 3 3 4 3 > ; ; = = 7 = ; ; 8 ",
"6 u u 6 8 * 3 3 7 0 & 0 0 6 6 0 C = = = ; ; - - = = 3 3 7 7 7 7 3 3 ; W &.C 6 6 0 c 0 3 3 7 3 7 7 4 4 4 4 3 > ; ; ; = = - - 8 0 ",
"| | m.d.; > 3 3 7 >.e 0 0 ; 6 C ; ; 3 f 3 7 f 4 3 3 3 6 7 0 6 6 0 3 7 7 3 0 7 0 8 0 3 3 6 3 ; ; 4 f - - k 3 ; ; ; ; ; - - 8 9 e ",
"B.0 8 u 9 ; 3 5 w.w.~ | ; ; ; 4 - ; 3 3 B m m l.g.7 3 0 6 6 0 C 0 3 3 3 C C C 6 0 ; 3 3 0 0 ; ; 5 ; - ; - = ; 3 7 ; : 1 9 1 8 a.",
"9 8 8 6 | 0 - - |  .&.~ ; 8 8 ; ; ; 4 3 f f 7 k f f 6 6 0 0 C C 5 3 3 3 0 C 0 0 | 0 - 6 0 8 8 = ; > - - ; ; 5 3 7 3 1 8 u.u.8 9 ",
"> : 6 8 9 | 9 ; 6 &.q.7 8 6 8 6 3 ; 3 7 ; 3 ; 0 v.W 0 0 6 5 6 7 3 ; 3 3 4 W @.@.| 0 > 6 6 7 6 ; ; ; ; - 3 > ; 0 0 r r 8 6 a.m.u ",
"- 1 8 9 9 9 8 3 7. . . .8 a.| 6 = 8 0 = = ; 8 i.7.M.M. .8 ; 3 6 7 3 3 3 0 0 0 0 0 0 ; 3 ~ ~ 3 3 ; ; ; 8 ; ; 0 0 6 8 u 8 6 6 1 ; ",
"1 > 9 u 8 8 * - r 0 0  .s.i.i.i.8 8 8 8 = 0 u.e r M.M.>.c ; 6 0 0 7 3 7 7 C 0 0 7 0 3 3 f 7 4 3 ; 5 8 8 8 - 0 0 1 8 u - 8 1 - - ",
"> > 8 r 8 - * * 0 0 C &.>.d.i.6 8 > 1 8 8 8 > 8 8 8 M.B.f 7 0 <.c 7 7 0 7 0 0 7 0 7 7 3 7 c c v 3 6 8 8 8 $ - 1 1 1 8 8 - ; - 1 ",
"1 8 8 r u - = ; 6 C C C q.0 0 0 - > 1 - 1 8 ; 6 ; 6 8 0 8 7 c >.0 6 6 7 0 C ~ 0 7 7 7 7 7 7 7 7 v 0 7 8 1 $ - - 1 1 1 6 5 ; 1 1 ",
"8 8 u | ; 9 < ; 3 8 6 L 6 u 0 5 7 k 5 = - 6 1 ; 6 8 8 8 ; ; C 0 6 6 6 3 7 C V. .7 6 3 3 7 5 5 7 7 7 c 9 - @ - > - 8 8 ; ; 3 0 8 ",
"a.8 3.; 9 9 9 ~ 3 5 8 0 0 0 ; 7 B k B B 3 - 8 1 1 - 8 > ; 8 7 5 6 3 5 5 0 ~ 0 0 ; 3 ; = ; 5 5 3 4 7 > > ; : 5 > > ; > ; 5 7 ; 8 ",
"8 8 6 8 1 9  .[ 3 0 0 0 0 0 5 z B B 5 ; ; - - 8 1 $ @ 1 8 7 ; ; ; ; 3 3 6 0 0 0 5 3 ; ; ; ; ; ; 3 0 6 ; 5 7 - 3 b > = ; 3 - - 8 ",
"8 8 8 8 : 8  .3 C 0 0 0 0 6 5 5 7 3 3 3 ; ; 8 8 1 1 @ - 8 6 - ; ; ; = ; 0 0 0 C 6 6 ; 7 3 ; - - ~ 6 0 0 5 ; ; ; u 1 - ; - ; ; 1 ",
"6 6 8 ; ; 5 5 7 0 0 0 &.0 0 8 ; 7 ; ; 3 3 = 6 8 8 1 - e 0 ; 0 ; ; 6 5 3 ; 8 7 0 C 0 ; ; ; = ; ; ~ 0 0 0 3 ; @ 9 9 1 1 - ; - - 8 ",
"| | 5 ; 0 <.0 0 3 C C L 7 6 0 0 3 ; ; ; ; 0 8 0 ~ ; r r 7 6 0 0 6 6 7 7 > @ 3 0 0 ; ; ; 3 ; ; 7 k &.0 3 3 $ @ 9 9 9 1 6 ; ; - 3 ",
"6 3 ; | &.>.&.0 0 3 C 0 C 0 0 C 4 3 - - - 8 0 0 r ; 9 8 0 c ; 6 1 8 ~ 8 8 - * ; 3 * = ; 0 0 6 3 k f 4 k 3 - - - 9 9 9 8 8 ; 7 6 ",
"3 3 3 0 &.z.&.C C 5 0 C C C 0 C 3 3 3 - - - 8 | ; ; - 0 0 ~ 0 - - - 8 0 - @ . * * = 3 z.| | u u 4 4 ; ; - - - - > 8 9 8 6 3 7 5 ",
"7 7 3 3 <.z.>.~ 3 0 >.>.i.i.C 3 3 7 3 - - - - - - ; - 9 0 0 9 - - $ - - - - * * = 7 k z.z.~ | 6 - * - - - - - ; ; ; 8 9 ; 3 7 z "
};
