/* XPM */
static char *_269a8a9c79d4d8dfe260c0f2b5744c0R1bBe7y33Wljbvcn[] = {
/* columns rows colors chars-per-pixel */
"16 16 205 2 ",
"   c #543420",
".  c #513B23",
"X  c #613E2C",
"o  c #574127",
"O  c #5E4127",
"+  c #52402C",
"@  c #5B4029",
"#  c #5B402A",
"$  c #5D422A",
"%  c #5E432A",
"&  c #5E422B",
"*  c #5E462A",
"=  c #5A4B29",
"-  c #5D4A2B",
";  c #5D522D",
":  c #614228",
">  c #60442B",
",  c #64412E",
"<  c #62452C",
"1  c #62462E",
"2  c #65492E",
"3  c #64482F",
"4  c #66492F",
"5  c #62572C",
"6  c #624433",
"7  c #674A31",
"8  c #614935",
"9  c #674B35",
"0  c #654D37",
"q  c #684A30",
"w  c #694B31",
"e  c #754737",
"r  c #704833",
"t  c #704F35",
"y  c #64573A",
"u  c #715036",
"i  c #735137",
"p  c #765234",
"a  c #745237",
"s  c #765337",
"d  c #785335",
"f  c #795435",
"g  c #71533A",
"h  c #755338",
"j  c #765338",
"k  c #765339",
"l  c #765439",
"z  c #765539",
"x  c #775539",
"c  c #71543C",
"v  c #7A503A",
"b  c #785539",
"n  c #795539",
"m  c #7B553A",
"M  c #79563A",
"N  c #78573A",
"B  c #7A573A",
"V  c #7A573B",
"C  c #7C533C",
"Z  c #77583E",
"A  c #7B583B",
"S  c #7C583B",
"D  c #7C583C",
"F  c #7C593C",
"G  c #7D593C",
"H  c #7D593D",
"J  c #7D5A3D",
"K  c #7E5A3C",
"L  c #7E5A3D",
"P  c #5E5757",
"I  c #775A43",
"U  c #7A5B44",
"Y  c #6D605F",
"T  c #706963",
"R  c #815B3E",
"E  c #895C3F",
"W  c #855C41",
"Q  c #855F40",
"!  c #815D44",
"~  c #894E5F",
"^  c #876042",
"/  c #876243",
"(  c #846247",
")  c #896445",
"_  c #8A6544",
"`  c #8C6645",
"'  c #8D6647",
"]  c #8F6746",
"[  c #8E6846",
"{  c #8F6947",
"}  c #85644A",
"|  c #88664B",
" . c #926742",
".. c #926644",
"X. c #926843",
"o. c #906946",
"O. c #906947",
"+. c #916947",
"@. c #906A47",
"#. c #976C47",
"$. c #916A49",
"%. c #936B49",
"&. c #946C4A",
"*. c #956D4A",
"=. c #956D4B",
"-. c #906D4E",
";. c #966D4C",
":. c #976F4C",
">. c #98694B",
",. c #996D49",
"<. c #98704C",
"1. c #9A724D",
"2. c #9C724D",
"3. c #977251",
"4. c #9E7A59",
"5. c #A27651",
"6. c #A27751",
"7. c #A27752",
"8. c #A97553",
"9. c #A67852",
"0. c #AA7C55",
"q. c #AB7D56",
"w. c #AC7D55",
"e. c #AC7E57",
"r. c #B17F55",
"t. c #B17F56",
"y. c #847C77",
"u. c #827E7B",
"i. c #528D2A",
"p. c #53952B",
"a. c #5F9C37",
"s. c #5F9E37",
"d. c #5FA237",
"f. c #5FA337",
"g. c #60A338",
"h. c #65A43D",
"j. c #65A63C",
"k. c #67A43F",
"l. c #64A83C",
"z. c #66B03F",
"x. c #6AA641",
"c. c #6DA741",
"v. c #69A940",
"b. c #6BAA42",
"n. c #6BAB42",
"m. c #79A14A",
"M. c #7BA04E",
"N. c #67B041",
"B. c #69B242",
"V. c #6AB443",
"C. c #6BB544",
"Z. c #72B349",
"A. c #71B64A",
"S. c #77BA4D",
"D. c #76BC4E",
"F. c #76BF4F",
"G. c #79B850",
"H. c #7BBE53",
"J. c #AF8058",
"K. c #AE8059",
"L. c #AF8059",
"P. c #B08159",
"I. c #B28259",
"U. c #B0825B",
"Y. c #B2825A",
"T. c #B2825B",
"R. c #B4835B",
"E. c #B4855C",
"W. c #B9875D",
"Q. c #87AD5B",
"!. c #83C456",
"~. c #8AC45B",
"^. c #94C764",
"/. c #92CB64",
"(. c #AA1FAB",
"). c #A622AA",
"_. c #AA2CAC",
"`. c #AF2EAE",
"'. c #A837AB",
"]. c #AC35AF",
"[. c #B232AF",
"{. c #B332AF",
"}. c #B333AF",
"|. c #B234B0",
" X c #B636B0",
".X c #B83AB1",
"XX c #BB3DB2",
"oX c #BC3FB2",
"OX c #B05E87",
"+X c #A956AD",
"@X c #AC5CB0",
"#X c #CA4FB8",
"$X c #C814D8",
"%X c #CA18D8",
"&X c #CE1DD9",
"*X c #CE1EDA",
"=X c #CE1EDB",
"-X c #D023DB",
";X c #D229DD",
":X c #D62CDD",
">X c #D82FDE",
",X c #CA3BDA",
"<X c #CA3DDA",
"1X c #E400FF",
"2X c #D031E3",
/* pixels */
"A.F.Z.v.v.x.d.V.H.G.v.l.B.g.p.C.",
"F.c.~.!.m.; h.d.h./.^.S.s.z.z.h.",
"M.y Q.N.<X1X1X1X1X1X1X1X= i.s.- ",
"0 Y 6 5 ,X1X(._.+X'.@X].e * o r ",
"W Z >.8.%X1Xv q .   + P ! E X D ",
"A O o.;.=X1X2 < , M C 9 M D M L.",
"w.> f } 2X1Xd T.L.D T.r.D ^ ^ 2.",
"T.D w.E.;X1X1X1X1X1X1XOXs k ] [ ",
"*.D D ] =X1X`.).}.oXXX~ R M : M ",
"<.[ & S =X1X2 s s W D D W.T.U ] ",
"<.o.M T.>X1X9.$.8 L.T.D X.4.y.c ",
"o.i D ;.:X1X..| T 3.,.k & _ ( < ",
"i 2 ] M -X1X#X.X|.}. X}.t W r.R.",
"D _ M z $X1X1X1X1X1X1X1Xk q.7.7.",
"*.z q q.M # g 7 M D M & z W o.[ ",
"o.D q.7. .I u.-.#.*.s M *.$.M # "
};
