/* XPM */
static char *_d5cb02f3cb74616d6370828a2313091TnIftDYdE1oHcvHT[] = {
/* columns rows colors chars-per-pixel */
"16 16 207 2 ",
"   c #543420",
".  c #513B23",
"X  c #613E2C",
"o  c #574127",
"O  c #5E4127",
"+  c #5A4028",
"@  c #5B4029",
"#  c #5B402A",
"$  c #5D422A",
"%  c #5E422B",
"&  c #5E462A",
"*  c #5D4A2B",
"=  c #5F4A2C",
"-  c #5A562B",
";  c #5D522D",
":  c #595B2B",
">  c #614228",
",  c #60442B",
"<  c #64412E",
"1  c #62462E",
"2  c #64482F",
"3  c #66482F",
"4  c #66492F",
"5  c #624433",
"6  c #674A31",
"7  c #654D37",
"8  c #684A30",
"9  c #694B31",
"0  c #6A4D32",
"q  c #6E4C31",
"w  c #6D4E34",
"e  c #704833",
"r  c #64573A",
"t  c #715036",
"y  c #735137",
"u  c #735236",
"i  c #745237",
"p  c #795435",
"a  c #71533A",
"s  c #755338",
"d  c #765439",
"f  c #765539",
"g  c #71543C",
"h  c #75573E",
"j  c #785539",
"k  c #795539",
"l  c #7B553A",
"z  c #79563A",
"x  c #7A573A",
"c  c #7A573B",
"v  c #77583E",
"b  c #7B583B",
"n  c #7C583C",
"m  c #7C593C",
"M  c #7D593C",
"N  c #7D5A3D",
"B  c #7E5A3C",
"V  c #7E5A3D",
"C  c #743254",
"Z  c #775A43",
"A  c #7A5B44",
"S  c #6D605F",
"D  c #796470",
"F  c #815C3E",
"G  c #895C3F",
"H  c #803477",
"J  c #855C41",
"K  c #855F40",
"L  c #845F42",
"P  c #876042",
"I  c #876243",
"U  c #846247",
"Y  c #896445",
"T  c #8A6544",
"R  c #8C6645",
"E  c #8E6644",
"W  c #8E6745",
"Q  c #8D6647",
"!  c #8E6846",
"~  c #8F6947",
"^  c #88664B",
"/  c #926742",
"(  c #926644",
")  c #906946",
"_  c #906947",
"`  c #916947",
"'  c #906A47",
"]  c #976C47",
"[  c #996D47",
"{  c #916A49",
"}  c #936B49",
"|  c #936C4A",
" . c #946C4A",
".. c #956D4A",
"X. c #956D4B",
"o. c #906D4E",
"O. c #98694B",
"+. c #98704C",
"@. c #9A724D",
"#. c #9C724D",
"$. c #9E7A59",
"%. c #A27651",
"&. c #A27751",
"*. c #A27752",
"=. c #A67852",
"-. c #AA7C55",
";. c #AB7D56",
":. c #AC7D55",
">. c #AC7E57",
",. c #AE7F58",
"<. c #B17F55",
"1. c #904E73",
"2. c #95437C",
"3. c #96437C",
"4. c #9A437E",
"5. c #847C77",
"6. c #827E7B",
"7. c #8C7A7F",
"8. c #B27B68",
"9. c #528D2A",
"0. c #53952B",
"q. c #5D8A33",
"w. c #5F9C37",
"e. c #5F9E37",
"r. c #65883B",
"t. c #5FA237",
"y. c #5FA337",
"u. c #60A338",
"i. c #65A43D",
"p. c #65A63C",
"a. c #67A43F",
"s. c #64A83C",
"d. c #66B03F",
"f. c #6AA641",
"g. c #6DA741",
"h. c #69A940",
"j. c #6BAA42",
"k. c #6BAB42",
"l. c #6BAB44",
"z. c #79A14A",
"x. c #7BA04E",
"c. c #69B242",
"v. c #6AB443",
"b. c #6BB544",
"n. c #72B349",
"m. c #71B64A",
"M. c #77BA4D",
"N. c #76BC4E",
"B. c #76BF4F",
"V. c #79B850",
"C. c #7BBE53",
"Z. c #AF8058",
"A. c #B08159",
"S. c #B0825B",
"D. c #B3835B",
"F. c #B4835B",
"G. c #87AD5B",
"H. c #83C456",
"J. c #82C459",
"K. c #8AC45B",
"L. c #94C764",
"P. c #92CB64",
"I. c #923485",
"U. c #9F319F",
"Y. c #AA27AB",
"T. c #A82CAB",
"R. c #B22AAE",
"E. c #B02FAE",
"W. c #B231AE",
"Q. c #B232AF",
"!. c #B334AF",
"~. c #B535AF",
"^. c #B227B9",
"/. c #B536B0",
"(. c #B737B0",
"). c #B738B2",
"_. c #BE3FB2",
"`. c #A2448B",
"'. c #A45382",
"]. c #AE5D86",
"[. c #AB5090",
"{. c #BF6B8E",
"}. c #C841BF",
"|. c #CF54BA",
" X c #C91DD8",
".X c #CD1CDA",
"XX c #CD1DDA",
"oX c #CD1EDA",
"OX c #C720D0",
"+X c #CD2DD2",
"@X c #CF23DC",
"#X c #D124DB",
"$X c #D227DC",
"%X c #D328DC",
"&X c #D62ADD",
"*X c #D830DE",
"=X c #D931DE",
"-X c #D607EC",
";X c #D61CE5",
":X c #DC16EE",
">X c #DE04F6",
",X c #DF06F7",
"<X c #E10CF7",
"1X c #E400FF",
"2X c #DB26E7",
"3X c #CA44DA",
"4X c #ACB096",
/* pixels */
"m.B.n.h.h.f.t.v.C.V.h.s.c.u.0.b.",
"B.g.K.H.z.; i.t.i.P.L.M.e.d.d.i.",
"x.r G.3X1XU.r.- l.J.4X1XT.9.e.* ",
"7 S 5  X1X>XC = q.: 7.1XR.& o e ",
"J v O.&X1X1XOX8 .   H 1X).G X n ",
"b O ) $X1X;X1XI.< z 4.1X!.n z Z.",
":., p @X1X1.1X<X8.n {.1X(.P P #.",
"A.n :.=X1X| ~.1X+X0 ].1XQ.s R ! ",
"..n n #X1XR w -X1X[.'.1X(.z > z ",
"+.! % oX1X# 4 3.1X>X`.1X|.A.A R ",
"+.) z =X1XF =.{ ^.1X2X1X_.$.5.g ",
") y n %X1XA.( ^ D :X1X1XY.T U 1 ",
"y 4 R oX1X*.,.J h 3.1X1XE.J <.F.",
"n T z oX1Xy [ R q 4 }.1XQ.;.*.*.",
"..f 8 ;.z # a 6 z n z % f J ) ! ",
") n ;.*./ Z 6.o.] ..i z ..{ z # "
};
