/* XPM */
static char *_069a4d95011438a9a4b921a66a55882Jir5OTEztG1reU0b[] = {
/* columns rows colors chars-per-pixel */
"16 16 207 2 ",
"   c #61383E",
".  c #5E4127",
"X  c #52402C",
"o  c #5B4029",
"O  c #5B402A",
"+  c #5D422A",
"@  c #5E422B",
"#  c #594B2A",
"$  c #5D4A2B",
"%  c #5F4F2E",
"&  c #5D522D",
"*  c #614228",
"=  c #60442B",
"-  c #62462E",
";  c #674A2C",
":  c #66482F",
">  c #66492F",
",  c #674A31",
"<  c #614935",
"1  c #674B35",
"2  c #654D37",
"3  c #694B31",
"4  c #6E4C31",
"5  c #704833",
"6  c #66583B",
"7  c #715036",
"8  c #735137",
"9  c #765234",
"0  c #745237",
"q  c #765337",
"w  c #71533A",
"e  c #755338",
"r  c #765439",
"t  c #765539",
"y  c #775539",
"u  c #71543C",
"i  c #75573E",
"p  c #785539",
"a  c #795539",
"s  c #79563A",
"d  c #7A573A",
"f  c #7A573B",
"g  c #7C533C",
"h  c #7B583B",
"j  c #7C583C",
"k  c #7C593C",
"l  c #7D593C",
"z  c #7E5A3D",
"x  c #743254",
"c  c #5E5757",
"v  c #664841",
"b  c #7E4F4C",
"n  c #775A43",
"m  c #785A41",
"M  c #7A5B44",
"N  c #7E5845",
"B  c #706963",
"V  c #893277",
"C  c #855C41",
"Z  c #855F40",
"A  c #845F42",
"S  c #876042",
"D  c #846247",
"F  c #896445",
"G  c #8B6444",
"H  c #8A6544",
"J  c #8C6645",
"K  c #8E6644",
"L  c #8D6647",
"P  c #8E6846",
"I  c #8F6947",
"U  c #88664B",
"Y  c #926742",
"T  c #906947",
"R  c #916947",
"E  c #906A47",
"W  c #976C47",
"Q  c #996D47",
"!  c #916A49",
"~  c #936B49",
"^  c #946C4A",
"/  c #956D4A",
"(  c #956D4B",
")  c #906D4E",
"_  c #98704C",
"`  c #9A724D",
"'  c #9C724D",
"]  c #9E7A59",
"[  c #A27651",
"{  c #A27751",
"}  c #A27752",
"|  c #AA7C55",
" . c #AB7D56",
".. c #AC7E57",
"X. c #AE7F58",
"o. c #B17F55",
"O. c #B17F56",
"+. c #914A6F",
"@. c #875062",
"#. c #844A76",
"$. c #944E70",
"%. c #92407B",
"&. c #98457D",
"*. c #A35874",
"=. c #A35C77",
"-. c #9C6D61",
";. c #847C77",
":. c #827E7B",
">. c #B97775",
",. c #53952B",
"<. c #5F9E37",
"1. c #65883B",
"2. c #66943E",
"3. c #5FA237",
"4. c #5FA337",
"5. c #60A338",
"6. c #66A03D",
"7. c #65A43D",
"8. c #65A63C",
"9. c #67A43F",
"0. c #64A83C",
"q. c #66B03F",
"w. c #689D40",
"e. c #6AA641",
"r. c #6DA741",
"t. c #69A940",
"y. c #6BAA42",
"u. c #6BAB42",
"i. c #79A14A",
"p. c #7BA04E",
"a. c #69B242",
"s. c #6AB443",
"d. c #6BB544",
"f. c #72B349",
"g. c #71B64A",
"h. c #77BA4D",
"j. c #76BC4E",
"k. c #76BF4F",
"l. c #79B850",
"z. c #7BBE53",
"x. c #AF8058",
"c. c #B08159",
"v. c #B0825B",
"b. c #B4835B",
"n. c #8DAD59",
"m. c #849A73",
"M. c #83C456",
"N. c #82C459",
"B. c #8AC45B",
"V. c #94C764",
"C. c #92CB64",
"Z. c #97D468",
"A. c #9D3689",
"S. c #9F2A9E",
"D. c #A33A96",
"F. c #A3399F",
"G. c #AF1AB5",
"H. c #A926AB",
"J. c #AA27AB",
"K. c #AA28AB",
"L. c #AD34A3",
"P. c #AD39A3",
"I. c #B232AF",
"U. c #BC2FBA",
"Y. c #BD33BD",
"T. c #C139BD",
"R. c #A95885",
"E. c #B05E87",
"W. c #AB429A",
"Q. c #B15995",
"!. c #B75A94",
"~. c #B7519E",
"^. c #987990",
"/. c #A045A6",
"(. c #BB4AA9",
"). c #C45DA4",
"_. c #C350AC",
"`. c #C654AD",
"'. c #CA4FB8",
"]. c #BB2AC5",
"[. c #C21DCE",
"{. c #CD1DDA",
"}. c #CE1EDA",
"|. c #C128C4",
" X c #C42EC6",
".X c #C631C7",
"XX c #CF3ACA",
"oX c #C825D0",
"OX c #CF22DB",
"+X c #D225DB",
"@X c #D539D5",
"#X c #CF0EE2",
"$X c #D00EE3",
"%X c #D60EEC",
"&X c #D011E3",
"*X c #D316E3",
"=X c #D417E4",
"-X c #DB13EE",
";X c #DB14EE",
":X c #DD17EE",
">X c #DE03F6",
",X c #DF05F6",
"<X c #DF05F7",
"1X c #DF07F7",
"2X c #E400FF",
"3X c #C146CF",
"4X c #D241CC",
/* pixels */
"g.k.f.t.t.e.3.s.z.l.t.0.a.5.,.d.",
"k.r.B.M.i.& 7.3.7.C.V.h.<.q.q.7.",
"p.].2Xm.6.# 1.%X2XN.Z.n.v 2X3X$ ",
"2 /.2XF.w.% x 2X2X#.2.6 A.2XS.5 ",
"C @.2XXX; G L.2X2XG.X c Y.2XV j ",
"h . -X;XN L [.>X$X*Xg 1 }.2Xs x.",
"..= |.2X^.m ,X4X'.2X>.o.2XOXS ' ",
"c.j `.2XQ.R.2XW.=.2X~.E.2XI.L P ",
"/ j $.2XU.T.2X  t ,X.XP.2X&.* s ",
"_ P @ ,X}.#X&Xq q  X,XoX2Xc.M L ",
"_ T s @X2X2X_.! < ).2X,X+X] ;.u ",
"T 8 j (.2X2X*.U B -.2X2XH.G D - ",
"8 ; L +.2X:XX.C i e =X2X%.C o.b.",
"j G s t H.D.Q L 4 ; !.K.b  .} } ",
"/ t 3  .s O w , s j s @ t C T P ",
"T j  .} Y n :.) W / q s / ! s O "
};
