/* XPM */
static char *_60756cd78764856b8de2b2b7d8df4d2e9F4GTtit9AexaoK[] = {
/* columns rows colors chars-per-pixel */
"16 16 225 2 ",
"   c #543420",
".  c #513B23",
"X  c #553B26",
"o  c #5E3729",
"O  c #613E2C",
"+  c #574127",
"@  c #5E4127",
"#  c #52402C",
"$  c #5A4028",
"%  c #5B4029",
"&  c #5B402A",
"*  c #5C412A",
"=  c #5D422A",
"-  c #5E432A",
";  c #5E422B",
":  c #5E462A",
">  c #5A4B29",
",  c #594B2A",
"<  c #5D4A2B",
"1  c #5F4A2C",
"2  c #5F4F2E",
"3  c #5A562B",
"4  c #5D522D",
"5  c #595B2B",
"6  c #614228",
"7  c #60442B",
"8  c #64412E",
"9  c #62452C",
"0  c #62462E",
"q  c #674A2C",
"w  c #65492E",
"e  c #64482F",
"r  c #66482F",
"t  c #66492F",
"y  c #62572C",
"u  c #624433",
"i  c #674A31",
"p  c #614935",
"a  c #674B35",
"s  c #654D37",
"d  c #684A30",
"f  c #694B31",
"g  c #6A4D32",
"h  c #6E4C31",
"j  c #6D4E34",
"k  c #754737",
"l  c #704833",
"z  c #704F35",
"x  c #64573A",
"c  c #66583B",
"v  c #715036",
"b  c #735137",
"n  c #735236",
"m  c #765234",
"M  c #745237",
"N  c #765337",
"B  c #785335",
"V  c #795435",
"C  c #71533A",
"Z  c #755338",
"A  c #765338",
"S  c #765339",
"D  c #765439",
"F  c #775439",
"G  c #765539",
"H  c #775539",
"J  c #71543C",
"K  c #75573E",
"L  c #7A503A",
"P  c #785539",
"I  c #795539",
"U  c #7B553A",
"Y  c #79563A",
"T  c #78573A",
"R  c #7A573A",
"E  c #7A573B",
"W  c #7D5738",
"Q  c #7C533C",
"!  c #77583E",
"~  c #7B583B",
"^  c #7C583B",
"/  c #7D583B",
"(  c #7C583C",
")  c #7C593C",
"_  c #7D593C",
"`  c #7D593D",
"'  c #7D5A3D",
"]  c #7E5A3C",
"[  c #7E5A3D",
"{  c #7F5A3D",
"}  c #5E5757",
"|  c #775A43",
" . c #785A41",
".. c #7A5B44",
"X. c #7E5845",
"o. c #6D605F",
"O. c #706963",
"+. c #815B3E",
"@. c #815C3E",
"#. c #895C3F",
"$. c #825D40",
"%. c #855C41",
"&. c #855F40",
"*. c #845F42",
"=. c #815D44",
"-. c #876042",
";. c #876243",
":. c #846247",
">. c #886343",
",. c #896445",
"<. c #8B6444",
"1. c #8A6544",
"2. c #8B6544",
"3. c #8C6645",
"4. c #8E6644",
"5. c #8E6745",
"6. c #8D6647",
"7. c #8F6746",
"8. c #8D6846",
"9. c #8E6846",
"0. c #8F6947",
"q. c #85644A",
"w. c #88664B",
"e. c #926742",
"r. c #926644",
"t. c #926843",
"y. c #906946",
"u. c #906947",
"i. c #916947",
"p. c #906A47",
"a. c #976C47",
"s. c #996D47",
"d. c #916A48",
"f. c #916A49",
"g. c #936B49",
"h. c #936C4A",
"j. c #946C4A",
"k. c #956D4A",
"l. c #956D4B",
"z. c #906D4E",
"x. c #966D4C",
"c. c #976F4C",
"v. c #98694B",
"b. c #996D49",
"n. c #98704C",
"m. c #99714C",
"M. c #9A724D",
"N. c #9C724D",
"B. c #9C734E",
"V. c #977251",
"C. c #967352",
"Z. c #9E7A59",
"A. c #A0754F",
"S. c #A27651",
"D. c #A27751",
"F. c #A27752",
"G. c #A97553",
"H. c #A67852",
"J. c #A67A54",
"K. c #AA7C55",
"L. c #AB7D56",
"P. c #AC7D55",
"I. c #AC7E57",
"U. c #AE7F58",
"Y. c #B17F55",
"T. c #B17F56",
"R. c #847C77",
"E. c #827E7B",
"W. c #528D2A",
"Q. c #53952B",
"!. c #5D8A33",
"~. c #5F9C37",
"^. c #5F9E37",
"/. c #65883B",
"(. c #66943E",
"). c #5FA237",
"_. c #5FA337",
"`. c #60A338",
"'. c #66A03D",
"]. c #65A43D",
"[. c #65A63C",
"{. c #67A43F",
"}. c #64A83C",
"|. c #66B03F",
" X c #689D40",
".X c #6AA641",
"XX c #6DA741",
"oX c #69A940",
"OX c #6BAA42",
"+X c #6BAB42",
"@X c #6BAB44",
"#X c #79A14A",
"$X c #7BA04E",
"%X c #67B041",
"&X c #69B242",
"*X c #6AB443",
"=X c #6BB544",
"-X c #72B349",
";X c #71B64A",
":X c #77BA4D",
">X c #76BC4E",
",X c #76BF4F",
"<X c #79B850",
"1X c #7BBE53",
"2X c #AF8058",
"3X c #AE8059",
"4X c #AF8059",
"5X c #B08159",
"6X c #B28259",
"7X c #B0825B",
"8X c #B2825A",
"9X c #B2825B",
"0X c #B3835B",
"qX c #B4835B",
"wX c #B4855C",
"eX c #B9875D",
"rX c #87AD5B",
"tX c #8DAD59",
"yX c #8B847C",
"uX c #83C456",
"iX c #82C459",
"pX c #8AC45B",
"aX c #94C764",
"sX c #92CB64",
"dX c #97D468",
/* pixels */
";X,X-XoXoX.X).*X1X<XoX}.&X`.Q.=X",
",XXXpXuX#X4 ].).].sXaX:X^.|.|.].",
"$Xx rX%X'., /.3 @XiXdXtX, W.^.< ",
"s o.u y  X2 o 1 !.5 (.c k : + l ",
"%.! v.G.q <.L d .   # } =.#.O ( ",
"~ @ y.x.X.6.q 9 8 Y Q a Y ( Y 4X",
"P.7 V q.yX .B 9X4X( 9XY.( -.-.N.",
"9X( P.wXC.h./ $.f.g n.N.N S 6.9.",
"k.( ( 6.W 6.j X G 9.<.Y +.Y 6 Y ",
"n.9.; / ( & q N N %.( ( eX9X..6.",
"n.y.Y 9X9X@.H.f.p 4X9X( t.Z.R.J ",
"y.b ( x.J.9Xr.w.O.C.b.S ; <.:.9 ",
"b q 6.Y >.F.U.%.K S ( G z %.Y.qX",
"( <.Y G ; b s.6.h q A.7 S L.F.F.",
"k.G d L.Y & C i Y ( Y ; G %.y.9.",
"y.( L.F.e.| E.z.a.k.N Y k.f.Y & "
};
