/* XPM */
static char *_652891de0ca4de3943e675d42e94a18qrhexu3YfV1zUhQ1[] = {
/* columns rows colors chars-per-pixel */
"16 16 216 2 ",
"   c #543420",
".  c #513B23",
"X  c #613E2C",
"o  c #574127",
"O  c #5E4127",
"+  c #5A4028",
"@  c #5B4029",
"#  c #5B402A",
"$  c #5C412A",
"%  c #5D422A",
"&  c #5E422B",
"*  c #5E462A",
"=  c #5A4B29",
"-  c #5D4A2B",
";  c #5D522D",
":  c #614228",
">  c #60442B",
",  c #64412E",
"<  c #62452C",
"1  c #62462E",
"2  c #64482F",
"3  c #66492F",
"4  c #62572C",
"5  c #624433",
"6  c #614935",
"7  c #654D37",
"8  c #684A30",
"9  c #694B31",
"0  c #754737",
"q  c #704833",
"w  c #704F35",
"e  c #64573A",
"r  c #715036",
"t  c #735137",
"y  c #745237",
"u  c #765337",
"i  c #795435",
"p  c #71533A",
"a  c #755338",
"s  c #765338",
"d  c #765439",
"f  c #765539",
"g  c #775539",
"h  c #71543C",
"j  c #785539",
"k  c #795539",
"l  c #7B553A",
"z  c #79563A",
"x  c #7A573A",
"c  c #7A573B",
"v  c #7D5738",
"b  c #77583E",
"n  c #7B583B",
"m  c #7C583B",
"M  c #7C583C",
"N  c #7C593C",
"B  c #7D593C",
"V  c #7D5A3D",
"C  c #7E5A3C",
"Z  c #7E5A3D",
"A  c #743D55",
"S  c #753E55",
"D  c #6F4644",
"F  c #7E4E49",
"G  c #775A43",
"H  c #7A5B44",
"J  c #7B4359",
"K  c #6D605F",
"L  c #706963",
"P  c #815B3E",
"I  c #895C3F",
"U  c #824C4E",
"Y  c #855C41",
"T  c #855F40",
"R  c #85554F",
"E  c #884F5F",
"W  c #885956",
"Q  c #876042",
"!  c #876243",
"~  c #846247",
"^  c #896445",
"/  c #8A6544",
"(  c #8C6645",
")  c #8E6745",
"_  c #8D6647",
"`  c #8F6746",
"'  c #8E6846",
"]  c #8F6947",
"[  c #85644A",
"{  c #88664B",
"}  c #926742",
"|  c #926644",
" . c #906946",
".. c #906947",
"X. c #916947",
"o. c #906A47",
"O. c #976C47",
"+. c #916A49",
"@. c #936B49",
"#. c #946C4A",
"$. c #956D4A",
"%. c #956D4B",
"&. c #906D4E",
"*. c #98694B",
"=. c #98704C",
"-. c #9A724D",
";. c #9C724D",
":. c #9C734E",
">. c #9C685D",
",. c #9E6C5D",
"<. c #977251",
"1. c #9E7A59",
"2. c #A27651",
"3. c #A27751",
"4. c #A27752",
"5. c #A97553",
"6. c #A67852",
"7. c #AA7C55",
"8. c #AB7D56",
"9. c #AC7D55",
"0. c #AC7E57",
"q. c #B17F55",
"w. c #B17F56",
"e. c #914A6F",
"r. c #97457D",
"t. c #847C77",
"y. c #827E7B",
"u. c #A16970",
"i. c #A76079",
"p. c #528D2A",
"a. c #53952B",
"s. c #5F9C37",
"d. c #5F9E37",
"f. c #5FA237",
"g. c #60A338",
"h. c #66A03D",
"j. c #67A43F",
"k. c #64A83C",
"l. c #66B03F",
"z. c #6F9D50",
"x. c #6AA641",
"c. c #6DA741",
"v. c #69A940",
"b. c #6BAA42",
"n. c #6BAB42",
"m. c #79A14A",
"M. c #7BA04E",
"N. c #67B041",
"B. c #69B242",
"V. c #6AB443",
"C. c #6BB544",
"Z. c #72B349",
"A. c #71B64A",
"S. c #77BA4D",
"D. c #76BC4E",
"F. c #76BF4F",
"G. c #79B850",
"H. c #7BBE53",
"J. c #799860",
"K. c #AF8058",
"L. c #AE8059",
"P. c #AF8059",
"I. c #B08159",
"U. c #B28259",
"Y. c #B0825B",
"T. c #B4835B",
"R. c #B4855C",
"E. c #B9875D",
"W. c #87AD5B",
"Q. c #8DAD59",
"!. c #88877C",
"~. c #83C456",
"^. c #8AC45B",
"/. c #94C764",
"(. c #92CB64",
"). c #A13F8B",
"_. c #A03795",
"`. c #A2309F",
"'. c #AD2CAE",
"]. c #A632A1",
"[. c #AB39A5",
"{. c #B33FA5",
"}. c #B82CB9",
"|. c #BE34BC",
" X c #A4468C",
".X c #A95582",
"XX c #9E739A",
"oX c #BF6B8F",
"OX c #A956AD",
"+X c #C65EA4",
"@X c #BF16CD",
"#X c #B823C2",
"$X c #BB2AC5",
"%X c #CC1CD9",
"&X c #CD1CD9",
"*X c #C028C5",
"=X c #D42ADC",
"-X c #D82FDE",
";X c #D830DE",
":X c #D00BE2",
">X c #D70BEC",
",X c #CF18E2",
"<X c #D51BE4",
"1X c #D71EE5",
"2X c #DB14EE",
"3X c #DC14EE",
"4X c #DE1BEF",
"5X c #DD03F6",
"6X c #DF05F6",
"7X c #DF05F7",
"8X c #DF07F7",
"9X c #DF18F7",
"0X c #E400FF",
"qX c #DB25E6",
"wX c #C642D4",
"eX c #C57BC6",
/* pixels */
"A.F.Z.v.v.x.f.V.H.G.v.k.B.g.a.C.",
"F.c.^.~.m.; z.!.J.(./.S.d.l.l.j.",
"M.e W.N.h.#X0X0X0X9XeXQ.= p.d.- ",
"7 K 5 4 XX0X:X`.OX,X0X$X0 * o q ",
"Y b *.5.>X7XU 8 .   5X0XW I X M ",
"n O  .>.7X7XD < , z ).'.E M z P.",
"9.> i [ wX0X&XoXP.M I.q.M Q Q ;.",
"I.M 9.R.u.1X0X0X2X].,.;.u s ` ' ",
"$.M M ` v ` _.@X0X0X7Xe.P z : z ",
"=.' & m M # 3 u F {.0X7XE.I.H ` ",
"=. .z +X-X X6.+.6 P.;X0X.X1.t.h ",
" .t M i.0X4X| { L <.3X0XS / ~ < ",
"t 3 ` z <X0XqX|.[.&X0X*Xw Y q.T.",
"M / z f & }.3X0X0X0X=XS s 8.4.4.",
"$.f 8 8.z # p J r.R z & f Y  .' ",
" .M 8.4.} G y.&.O.$.u z $.+.z # "
};
